<?xml version="1.0" encoding="UTF-8" standalone="no"?>
<!DOCTYPE svg PUBLIC "-//W3C//DTD SVG 1.1//EN"
 "http://www.w3.org/Graphics/SVG/1.1/DTD/svg11.dtd">
<!-- Generated by graphviz version 7.1.0 (0)
 -->
<!-- Pages: 1 -->
<svg width="1352pt" height="1488pt"
 viewBox="0.00 0.00 1352.00 1487.87" xmlns="http://www.w3.org/2000/svg" xmlns:xlink="http://www.w3.org/1999/xlink">
<g id="graph0" class="graph" transform="scale(1 1) rotate(0) translate(4 1483.87)">
<polygon fill="white" stroke="none" points="-4,4 -4,-1483.87 1348,-1483.87 1348,4 -4,4"/>
<g id="clust2" class="cluster">
<title>cluster_hm</title>
<polygon fill="none" stroke="black" points="1042,-8 1042,-978.09 1336,-978.09 1336,-8 1042,-8"/>
<text text-anchor="middle" x="1189" y="-962.89" font-family="Times,serif" font-size="14.00">hm</text>
</g>
<g id="clust3" class="cluster">
<title>cluster_jc</title>
<polygon fill="none" stroke="black" points="346,-440 346,-1435.87 616,-1435.87 616,-440 346,-440"/>
<text text-anchor="middle" x="481" y="-1420.67" font-family="Times,serif" font-size="14.00">jc</text>
</g>
<g id="clust4" class="cluster">
<title>cluster_pl</title>
<polygon fill="none" stroke="black" points="8,-440 8,-1435.87 338,-1435.87 338,-440 8,-440"/>
<text text-anchor="middle" x="173" y="-1420.67" font-family="Times,serif" font-size="14.00">pl</text>
</g>
<g id="clust5" class="cluster">
<title>cluster_fd</title>
<polygon fill="none" stroke="black" points="724,-440 724,-1435.87 1034,-1435.87 1034,-440 724,-440"/>
<text text-anchor="middle" x="879" y="-1420.67" font-family="Times,serif" font-size="14.00">fd</text>
</g>
<!-- jn -->
<g id="node1" class="node">
<title>jn</title>
<polygon fill="none" stroke="black" points="225,-1404.87 171,-1404.87 171,-1368.87 225,-1368.87 225,-1404.87"/>
<text text-anchor="middle" x="198" y="-1383.17" font-family="Times,serif" font-size="14.00">jn</text>
</g>
<!-- pl -->
<g id="node2" class="node">
<title>pl</title>
<ellipse fill="none" stroke="black" cx="147" cy="-1313.37" rx="19.5" ry="19.5"/>
<text text-anchor="middle" x="147" y="-1309.67" font-family="Times,serif" font-size="14.00">pl</text>
</g>
<!-- jn&#45;&gt;pl -->
<g id="edge1" class="edge">
<title>jn&#45;&gt;pl</title>
<path fill="none" stroke="black" d="M179.78,-1368.56C173.13,-1360.43 165.85,-1350.54 159.74,-1341.45"/>
<polygon fill="black" stroke="black" points="162.85,-1339.8 154.49,-1333.29 156.96,-1343.59 162.85,-1339.8"/>
</g>
<!-- sb -->
<g id="node3" class="node">
<title>sb</title>
<polygon fill="none" stroke="black" points="330,-1255.07 276,-1255.07 276,-1219.07 330,-1219.07 330,-1255.07"/>
<text text-anchor="middle" x="303" y="-1233.37" font-family="Times,serif" font-size="14.00">sb</text>
</g>
<!-- jn&#45;&gt;sb -->
<g id="edge2" class="edge">
<title>jn&#45;&gt;sb</title>
<path fill="none" stroke="black" d="M210.25,-1368.63C228.51,-1342.93 262.99,-1294.39 284.38,-1264.28"/>
<polygon fill="black" stroke="black" points="287.01,-1266.62 289.95,-1256.44 281.31,-1262.57 287.01,-1266.62"/>
</g>
<!-- pl&#45;&gt;jn -->
<g id="edge73" class="edge">
<title>pl&#45;&gt;jn</title>
<path fill="none" stroke="black" d="M161.14,-1326.82C168.79,-1335.66 177.93,-1347.87 185.33,-1358.9"/>
<polygon fill="black" stroke="black" points="182.37,-1360.77 190.71,-1367.29 188.26,-1356.98 182.37,-1360.77"/>
</g>
<!-- pl&#45;&gt;sb -->
<g id="edge71" class="edge">
<title>pl&#45;&gt;sb</title>
<path fill="none" stroke="black" d="M164.69,-1304.84C186.47,-1295.47 224.77,-1278.64 265.49,-1258.48"/>
<polygon fill="black" stroke="black" points="266.86,-1261.7 274.24,-1254.1 263.73,-1255.44 266.86,-1261.7"/>
</g>
<!-- sv -->
<g id="node36" class="node">
<title>sv</title>
<ellipse fill="none" stroke="black" cx="237" cy="-1237.07" rx="20.6" ry="20.6"/>
<text text-anchor="middle" x="237" y="-1233.37" font-family="Times,serif" font-size="14.00">sv</text>
</g>
<!-- pl&#45;&gt;sv -->
<g id="edge72" class="edge">
<title>pl&#45;&gt;sv</title>
<path fill="none" stroke="black" d="M161.86,-1300.1C175.76,-1288.63 196.77,-1271.29 213.04,-1257.86"/>
<polygon fill="black" stroke="black" points="214.86,-1260.89 220.35,-1251.82 210.41,-1255.49 214.86,-1260.89"/>
</g>
<!-- cz -->
<g id="node38" class="node">
<title>cz</title>
<polygon fill="none" stroke="black" points="170,-875.09 116,-875.09 116,-839.09 170,-839.09 170,-875.09"/>
<text text-anchor="middle" x="143" y="-853.39" font-family="Times,serif" font-size="14.00">cz</text>
</g>
<!-- pl&#45;&gt;cz -->
<g id="edge69" class="edge">
<title>pl&#45;&gt;cz</title>
<path fill="none" stroke="black" d="M141.07,-1294.36C132.33,-1266.15 117,-1209.67 117,-1160.48 117,-1160.48 117,-1160.48 117,-1006.54 117,-963.88 118.58,-952.9 127,-911.09 128.63,-902.98 130.97,-894.34 133.36,-886.44"/>
<polygon fill="black" stroke="black" points="136.68,-887.58 136.36,-876.98 130,-885.46 136.68,-887.58"/>
</g>
<!-- gj -->
<g id="node39" class="node">
<title>gj</title>
<polygon fill="none" stroke="black" points="210,-1101.83 156,-1101.83 156,-1065.83 210,-1065.83 210,-1101.83"/>
<text text-anchor="middle" x="183" y="-1080.13" font-family="Times,serif" font-size="14.00">gj</text>
</g>
<!-- pl&#45;&gt;gj -->
<g id="edge70" class="edge">
<title>pl&#45;&gt;gj</title>
<path fill="none" stroke="black" d="M148.1,-1293.44C150.2,-1261.34 155.63,-1194.29 167,-1138.68 168.73,-1130.24 171.17,-1121.21 173.62,-1113"/>
<polygon fill="black" stroke="black" points="176.94,-1114.13 176.58,-1103.54 170.26,-1112.04 176.94,-1114.13"/>
</g>
<!-- dl -->
<g id="node40" class="node">
<title>dl</title>
<polygon fill="none" stroke="black" points="190,-1025.54 136,-1025.54 136,-989.54 190,-989.54 190,-1025.54"/>
<text text-anchor="middle" x="163" y="-1003.84" font-family="Times,serif" font-size="14.00">dl</text>
</g>
<!-- pl&#45;&gt;dl -->
<g id="edge75" class="edge">
<title>pl&#45;&gt;dl</title>
<path fill="none" stroke="black" d="M145.25,-1293.63C141.76,-1252.17 135.23,-1149.64 147,-1064.98 148.32,-1055.48 150.84,-1045.32 153.49,-1036.28"/>
<polygon fill="black" stroke="black" points="156.75,-1037.6 156.39,-1027.01 150.06,-1035.51 156.75,-1037.6"/>
</g>
<!-- zc -->
<g id="node46" class="node">
<title>zc</title>
<polygon fill="none" stroke="black" points="230,-1177.48 176,-1177.48 176,-1141.48 230,-1141.48 230,-1177.48"/>
<text text-anchor="middle" x="203" y="-1155.78" font-family="Times,serif" font-size="14.00">zc</text>
</g>
<!-- pl&#45;&gt;zc -->
<g id="edge74" class="edge">
<title>pl&#45;&gt;zc</title>
<path fill="none" stroke="black" d="M153.53,-1294.65C163.2,-1268.44 181.38,-1219.12 192.8,-1188.13"/>
<polygon fill="black" stroke="black" points="195.98,-1189.63 196.16,-1179.04 189.41,-1187.21 195.98,-1189.63"/>
</g>
<!-- sb&#45;&gt;zc -->
<g id="edge76" class="edge">
<title>sb&#45;&gt;zc</title>
<path fill="none" stroke="black" d="M280.31,-1218.92C266.85,-1208.75 249.59,-1195.7 234.79,-1184.51"/>
<polygon fill="black" stroke="black" points="237.24,-1181.98 227.16,-1178.74 233.02,-1187.56 237.24,-1181.98"/>
</g>
<!-- ml -->
<g id="node4" class="node">
<title>ml</title>
<polygon fill="none" stroke="black" points="534,-1404.87 480,-1404.87 480,-1368.87 534,-1368.87 534,-1404.87"/>
<text text-anchor="middle" x="507" y="-1383.17" font-family="Times,serif" font-size="14.00">ml</text>
</g>
<!-- bs -->
<g id="node5" class="node">
<title>bs</title>
<polygon fill="none" stroke="black" points="488,-1331.37 434,-1331.37 434,-1295.37 488,-1295.37 488,-1331.37"/>
<text text-anchor="middle" x="461" y="-1309.67" font-family="Times,serif" font-size="14.00">bs</text>
</g>
<!-- ml&#45;&gt;bs -->
<g id="edge3" class="edge">
<title>ml&#45;&gt;bs</title>
<path fill="none" stroke="black" d="M495.86,-1368.56C490.59,-1360.37 484.17,-1350.39 478.29,-1341.25"/>
<polygon fill="black" stroke="black" points="481.37,-1339.56 473.01,-1333.04 475.48,-1343.34 481.37,-1339.56"/>
</g>
<!-- jc -->
<g id="node6" class="node">
<title>jc</title>
<ellipse fill="none" stroke="black" cx="487" cy="-1083.83" rx="18.7" ry="18.7"/>
<text text-anchor="middle" x="487" y="-1080.13" font-family="Times,serif" font-size="14.00">jc</text>
</g>
<!-- ml&#45;&gt;jc -->
<g id="edge4" class="edge">
<title>ml&#45;&gt;jc</title>
<path fill="none" stroke="black" d="M501.49,-1368.47C495.09,-1328.09 489.61,-1224.84 483,-1138.68 482.36,-1130.38 481.57,-1121.37 481.17,-1113.13"/>
<polygon fill="black" stroke="black" points="484.68,-1113.24 480.98,-1103.31 477.68,-1113.38 484.68,-1113.24"/>
</g>
<!-- zv -->
<g id="node29" class="node">
<title>zv</title>
<polygon fill="none" stroke="black" points="468,-1255.07 414,-1255.07 414,-1219.07 468,-1219.07 468,-1255.07"/>
<text text-anchor="middle" x="441" y="-1233.37" font-family="Times,serif" font-size="14.00">zv</text>
</g>
<!-- bs&#45;&gt;zv -->
<g id="edge39" class="edge">
<title>bs&#45;&gt;zv</title>
<path fill="none" stroke="black" d="M456.36,-1295.14C454.06,-1286.57 451.21,-1276 448.6,-1266.3"/>
<polygon fill="black" stroke="black" points="452.06,-1265.68 446.08,-1256.93 445.3,-1267.5 452.06,-1265.68"/>
</g>
<!-- jc&#45;&gt;ml -->
<g id="edge51" class="edge">
<title>jc&#45;&gt;ml</title>
<path fill="none" stroke="black" d="M496.17,-1100.37C498.63,-1111.12 500.01,-1125.76 501,-1138.68 507.06,-1217.61 512.16,-1310.87 511.2,-1357.02"/>
<polygon fill="black" stroke="black" points="507.7,-1356.84 510.84,-1366.96 514.7,-1357.1 507.7,-1356.84"/>
</g>
<!-- jc&#45;&gt;bs -->
<g id="edge53" class="edge">
<title>jc&#45;&gt;bs</title>
<path fill="none" stroke="black" d="M487.3,-1102.67C487.54,-1134.22 486.71,-1201.84 477,-1257.87 475.49,-1266.56 473.09,-1275.82 470.6,-1284.2"/>
<polygon fill="black" stroke="black" points="467.34,-1282.91 467.68,-1293.5 474.01,-1285.01 467.34,-1282.91"/>
</g>
<!-- lq -->
<g id="node28" class="node">
<title>lq</title>
<polygon fill="none" stroke="black" points="448,-803.09 394,-803.09 394,-767.09 448,-767.09 448,-803.09"/>
<text text-anchor="middle" x="421" y="-781.39" font-family="Times,serif" font-size="14.00">lq</text>
</g>
<!-- jc&#45;&gt;lq -->
<g id="edge52" class="edge">
<title>jc&#45;&gt;lq</title>
<path fill="none" stroke="black" d="M477.18,-1067.6C470.52,-1056.99 461.75,-1042.39 455,-1028.98 445.7,-1010.52 452.69,-999.55 437,-986.09 425.88,-976.54 414.02,-989.64 405,-978.09 367.84,-930.49 391.05,-854.55 407.96,-813.9"/>
<polygon fill="black" stroke="black" points="411.13,-815.38 411.9,-804.81 404.71,-812.59 411.13,-815.38"/>
</g>
<!-- lx -->
<g id="node32" class="node">
<title>lx</title>
<polygon fill="none" stroke="black" points="428,-1025.54 374,-1025.54 374,-989.54 428,-989.54 428,-1025.54"/>
<text text-anchor="middle" x="401" y="-1003.84" font-family="Times,serif" font-size="14.00">lx</text>
</g>
<!-- jc&#45;&gt;lx -->
<g id="edge49" class="edge">
<title>jc&#45;&gt;lx</title>
<path fill="none" stroke="black" d="M473.18,-1070.9C461.54,-1060.84 444.5,-1046.12 429.9,-1033.51"/>
<polygon fill="black" stroke="black" points="432.2,-1030.86 422.34,-1026.97 427.62,-1036.16 432.2,-1030.86"/>
</g>
<!-- ch -->
<g id="node33" class="node">
<title>ch</title>
<ellipse fill="none" stroke="black" cx="587" cy="-1007.54" rx="21.4" ry="21.4"/>
<text text-anchor="middle" x="587" y="-1003.84" font-family="Times,serif" font-size="14.00">ch</text>
</g>
<!-- jc&#45;&gt;ch -->
<g id="edge48" class="edge">
<title>jc&#45;&gt;ch</title>
<path fill="none" stroke="black" d="M501.76,-1071.87C517.3,-1060.32 542.09,-1041.9 560.94,-1027.9"/>
<polygon fill="black" stroke="black" points="563.02,-1030.71 568.96,-1021.94 558.85,-1025.09 563.02,-1030.71"/>
</g>
<!-- nv -->
<g id="node35" class="node">
<title>nv</title>
<polygon fill="none" stroke="black" points="468,-947.09 414,-947.09 414,-911.09 468,-911.09 468,-947.09"/>
<text text-anchor="middle" x="441" y="-925.39" font-family="Times,serif" font-size="14.00">nv</text>
</g>
<!-- jc&#45;&gt;nv -->
<g id="edge50" class="edge">
<title>jc&#45;&gt;nv</title>
<path fill="none" stroke="black" d="M481.81,-1065.61C473.94,-1039.48 458.91,-989.56 449.45,-958.14"/>
<polygon fill="black" stroke="black" points="452.91,-957.5 446.68,-948.93 446.21,-959.52 452.91,-957.5"/>
</g>
<!-- kl -->
<g id="node7" class="node">
<title>kl</title>
<polygon fill="none" stroke="black" points="1202,-947.09 1148,-947.09 1148,-911.09 1202,-911.09 1202,-947.09"/>
<text text-anchor="middle" x="1175" y="-925.39" font-family="Times,serif" font-size="14.00">kl</text>
</g>
<!-- hm -->
<g id="node8" class="node">
<title>hm</title>
<ellipse fill="none" stroke="black" cx="1185" cy="-705.74" rx="25.2" ry="25.2"/>
<text text-anchor="middle" x="1185" y="-702.04" font-family="Times,serif" font-size="14.00">hm</text>
</g>
<!-- kl&#45;&gt;hm -->
<g id="edge5" class="edge">
<title>kl&#45;&gt;hm</title>
<path fill="none" stroke="black" d="M1171.94,-910.72C1170.18,-874.45 1173.58,-790.07 1178.31,-741.97"/>
<polygon fill="black" stroke="black" points="1181.79,-742.4 1179.38,-732.08 1174.83,-741.64 1181.79,-742.4"/>
</g>
<!-- tx -->
<g id="node9" class="node">
<title>tx</title>
<polygon fill="none" stroke="black" points="1248,-875.09 1194,-875.09 1194,-839.09 1248,-839.09 1248,-875.09"/>
<text text-anchor="middle" x="1221" y="-853.39" font-family="Times,serif" font-size="14.00">tx</text>
</g>
<!-- kl&#45;&gt;tx -->
<g id="edge6" class="edge">
<title>kl&#45;&gt;tx</title>
<path fill="none" stroke="black" d="M1186.37,-910.78C1191.55,-902.9 1197.8,-893.39 1203.56,-884.63"/>
<polygon fill="black" stroke="black" points="1206.36,-886.74 1208.93,-876.46 1200.51,-882.89 1206.36,-886.74"/>
</g>
<!-- hm&#45;&gt;kl -->
<g id="edge24" class="edge">
<title>hm&#45;&gt;kl</title>
<path fill="none" stroke="black" d="M1188.31,-730.92C1189.47,-772.05 1185.81,-855.43 1181.01,-899.42"/>
<polygon fill="black" stroke="black" points="1177.55,-898.87 1179.81,-909.22 1184.5,-899.72 1177.55,-898.87"/>
</g>
<!-- xx -->
<g id="node13" class="node">
<title>xx</title>
<polygon fill="none" stroke="black" points="1253,-340 1199,-340 1199,-304 1253,-304 1253,-340"/>
<text text-anchor="middle" x="1226" y="-318.3" font-family="Times,serif" font-size="14.00">xx</text>
</g>
<!-- hm&#45;&gt;xx -->
<g id="edge27" class="edge">
<title>hm&#45;&gt;xx</title>
<path fill="none" stroke="black" d="M1193.95,-681.91C1204.46,-655.45 1221.53,-613.6 1230,-598.9 1239.99,-581.57 1250.68,-581.87 1257,-562.9 1267.51,-531.36 1267.71,-467.22 1247,-376 1245.09,-367.6 1242.06,-358.79 1238.88,-350.82"/>
<polygon fill="black" stroke="black" points="1242.11,-349.47 1234.99,-341.63 1235.66,-352.2 1242.11,-349.47"/>
</g>
<!-- gh -->
<g id="node15" class="node">
<title>gh</title>
<ellipse fill="none" stroke="black" cx="1073" cy="-621.64" rx="23" ry="23"/>
<text text-anchor="middle" x="1073" y="-617.94" font-family="Times,serif" font-size="14.00">gh</text>
</g>
<!-- hm&#45;&gt;gh -->
<g id="edge25" class="edge">
<title>hm&#45;&gt;gh</title>
<path fill="none" stroke="black" d="M1164.98,-690.06C1147.02,-676.9 1120.52,-657.48 1100.57,-642.85"/>
<polygon fill="black" stroke="black" points="1102.72,-640.09 1092.59,-637 1098.58,-645.74 1102.72,-640.09"/>
</g>
<!-- tl -->
<g id="node17" class="node">
<title>tl</title>
<polygon fill="none" stroke="black" points="1248,-559.45 1194,-559.45 1194,-523.45 1248,-523.45 1248,-559.45"/>
<text text-anchor="middle" x="1221" y="-537.75" font-family="Times,serif" font-size="14.00">tl</text>
</g>
<!-- hm&#45;&gt;tl -->
<g id="edge26" class="edge">
<title>hm&#45;&gt;tl</title>
<path fill="none" stroke="black" d="M1190.31,-680.79C1196.83,-651.4 1207.87,-601.62 1214.78,-570.47"/>
<polygon fill="black" stroke="black" points="1218.13,-571.53 1216.88,-561.01 1211.3,-570.01 1218.13,-571.53"/>
</g>
<!-- zq -->
<g id="node23" class="node">
<title>zq</title>
<polygon fill="none" stroke="black" points="1328,-639.64 1274,-639.64 1274,-603.64 1328,-603.64 1328,-639.64"/>
<text text-anchor="middle" x="1301" y="-617.94" font-family="Times,serif" font-size="14.00">zq</text>
</g>
<!-- hm&#45;&gt;zq -->
<g id="edge28" class="edge">
<title>hm&#45;&gt;zq</title>
<path fill="none" stroke="black" d="M1205.47,-690.25C1222.46,-678.23 1246.99,-660.87 1266.93,-646.76"/>
<polygon fill="black" stroke="black" points="1268.93,-649.63 1275.07,-641 1264.88,-643.92 1268.93,-649.63"/>
</g>
<!-- tx&#45;&gt;hm -->
<g id="edge13" class="edge">
<title>tx&#45;&gt;hm</title>
<path fill="none" stroke="black" d="M1215.42,-839.01C1212.16,-828.68 1208.08,-815.2 1205,-803.09 1199.9,-783.03 1195.15,-760.37 1191.56,-742.08"/>
<polygon fill="black" stroke="black" points="1195.04,-741.67 1189.71,-732.52 1188.17,-743 1195.04,-741.67"/>
</g>
<!-- xt -->
<g id="node19" class="node">
<title>xt</title>
<polygon fill="none" stroke="black" points="1268,-803.09 1214,-803.09 1214,-767.09 1268,-767.09 1268,-803.09"/>
<text text-anchor="middle" x="1241" y="-781.39" font-family="Times,serif" font-size="14.00">xt</text>
</g>
<!-- tx&#45;&gt;xt -->
<g id="edge12" class="edge">
<title>tx&#45;&gt;xt</title>
<path fill="none" stroke="black" d="M1225.94,-838.78C1228.08,-831.32 1230.62,-822.41 1233.01,-814.05"/>
<polygon fill="black" stroke="black" points="1236.32,-815.22 1235.7,-804.65 1229.58,-813.3 1236.32,-815.22"/>
</g>
<!-- xs -->
<g id="node10" class="node">
<title>xs</title>
<polygon fill="none" stroke="black" points="900,-1404.87 846,-1404.87 846,-1368.87 900,-1368.87 900,-1404.87"/>
<text text-anchor="middle" x="873" y="-1383.17" font-family="Times,serif" font-size="14.00">xs</text>
</g>
<!-- td -->
<g id="node11" class="node">
<title>td</title>
<polygon fill="none" stroke="black" points="946,-1331.37 892,-1331.37 892,-1295.37 946,-1295.37 946,-1331.37"/>
<text text-anchor="middle" x="919" y="-1309.67" font-family="Times,serif" font-size="14.00">td</text>
</g>
<!-- xs&#45;&gt;td -->
<g id="edge7" class="edge">
<title>xs&#45;&gt;td</title>
<path fill="none" stroke="black" d="M884.14,-1368.56C889.41,-1360.37 895.83,-1350.39 901.71,-1341.25"/>
<polygon fill="black" stroke="black" points="904.52,-1343.34 906.99,-1333.04 898.63,-1339.56 904.52,-1343.34"/>
</g>
<!-- fd -->
<g id="node12" class="node">
<title>fd</title>
<ellipse fill="none" stroke="black" cx="873" cy="-1237.07" rx="20.3" ry="20.3"/>
<text text-anchor="middle" x="873" y="-1233.37" font-family="Times,serif" font-size="14.00">fd</text>
</g>
<!-- xs&#45;&gt;fd -->
<g id="edge8" class="edge">
<title>xs&#45;&gt;fd</title>
<path fill="none" stroke="black" d="M868.48,-1368.63C865.91,-1344.02 865.56,-1298.48 867.44,-1268.22"/>
<polygon fill="black" stroke="black" points="870.9,-1268.82 868.18,-1258.58 863.92,-1268.28 870.9,-1268.82"/>
</g>
<!-- td&#45;&gt;fd -->
<g id="edge103" class="edge">
<title>td&#45;&gt;fd</title>
<path fill="none" stroke="black" d="M908.33,-1295.14C902.72,-1286.07 895.71,-1274.76 889.42,-1264.6"/>
<polygon fill="black" stroke="black" points="892.49,-1262.9 884.25,-1256.24 886.54,-1266.59 892.49,-1262.9"/>
</g>
<!-- jl -->
<g id="node55" class="node">
<title>jl</title>
<polygon fill="none" stroke="black" points="1026,-1177.48 972,-1177.48 972,-1141.48 1026,-1141.48 1026,-1177.48"/>
<text text-anchor="middle" x="999" y="-1155.78" font-family="Times,serif" font-size="14.00">jl</text>
</g>
<!-- td&#45;&gt;jl -->
<g id="edge104" class="edge">
<title>td&#45;&gt;jl</title>
<path fill="none" stroke="black" d="M928.18,-1294.95C941.98,-1268.74 968.21,-1218.93 984.59,-1187.85"/>
<polygon fill="black" stroke="black" points="987.66,-1189.52 989.22,-1179.04 981.47,-1186.26 987.66,-1189.52"/>
</g>
<!-- fd&#45;&gt;xs -->
<g id="edge93" class="edge">
<title>fd&#45;&gt;xs</title>
<path fill="none" stroke="black" d="M877.7,-1257.07C880.15,-1282.51 880.4,-1327.88 878.46,-1357.41"/>
<polygon fill="black" stroke="black" points="874.99,-1356.86 877.65,-1367.12 881.97,-1357.44 874.99,-1356.86"/>
</g>
<!-- mq -->
<g id="node47" class="node">
<title>mq</title>
<polygon fill="none" stroke="black" points="906,-803.09 852,-803.09 852,-767.09 906,-767.09 906,-803.09"/>
<text text-anchor="middle" x="879" y="-781.39" font-family="Times,serif" font-size="14.00">mq</text>
</g>
<!-- fd&#45;&gt;mq -->
<g id="edge94" class="edge">
<title>fd&#45;&gt;mq</title>
<path fill="none" stroke="black" d="M868.86,-1217.08C863,-1188.53 853,-1132.77 853,-1084.83 853,-1084.83 853,-1084.83 853,-928.09 853,-888 863.15,-842.57 870.77,-814.12"/>
<polygon fill="black" stroke="black" points="874.04,-815.42 873.33,-804.85 867.29,-813.55 874.04,-815.42"/>
</g>
<!-- th -->
<g id="node53" class="node">
<title>th</title>
<ellipse fill="none" stroke="black" cx="753" cy="-1159.48" rx="20.6" ry="20.6"/>
<text text-anchor="middle" x="753" y="-1155.78" font-family="Times,serif" font-size="14.00">th</text>
</g>
<!-- fd&#45;&gt;th -->
<g id="edge95" class="edge">
<title>fd&#45;&gt;th</title>
<path fill="none" stroke="black" d="M856.06,-1225.4C836.25,-1212.92 803.21,-1192.11 779.88,-1177.41"/>
<polygon fill="black" stroke="black" points="781.85,-1174.52 771.52,-1172.15 778.12,-1180.44 781.85,-1174.52"/>
</g>
<!-- fd&#45;&gt;jl -->
<g id="edge91" class="edge">
<title>fd&#45;&gt;jl</title>
<path fill="none" stroke="black" d="M890.26,-1225.72C908.66,-1214.68 938.35,-1196.87 962.06,-1182.64"/>
<polygon fill="black" stroke="black" points="963.74,-1185.72 970.51,-1177.57 960.14,-1179.71 963.74,-1185.72"/>
</g>
<!-- hv -->
<g id="node56" class="node">
<title>hv</title>
<polygon fill="none" stroke="black" points="946,-1025.54 892,-1025.54 892,-989.54 946,-989.54 946,-1025.54"/>
<text text-anchor="middle" x="919" y="-1003.84" font-family="Times,serif" font-size="14.00">hv</text>
</g>
<!-- fd&#45;&gt;hv -->
<g id="edge92" class="edge">
<title>fd&#45;&gt;hv</title>
<path fill="none" stroke="black" d="M875.73,-1216.7C880.38,-1184.85 890.53,-1119.52 903,-1064.98 905.1,-1055.8 907.77,-1045.89 910.33,-1036.97"/>
<polygon fill="black" stroke="black" points="913.67,-1037.99 913.13,-1027.41 906.96,-1036.02 913.67,-1037.99"/>
</g>
<!-- km -->
<g id="node14" class="node">
<title>km</title>
<polygon fill="none" stroke="black" points="1253,-268 1199,-268 1199,-232 1253,-232 1253,-268"/>
<text text-anchor="middle" x="1226" y="-246.3" font-family="Times,serif" font-size="14.00">km</text>
</g>
<!-- xx&#45;&gt;km -->
<g id="edge9" class="edge">
<title>xx&#45;&gt;km</title>
<path fill="none" stroke="black" d="M1226,-303.7C1226,-296.41 1226,-287.73 1226,-279.54"/>
<polygon fill="black" stroke="black" points="1229.5,-279.62 1226,-269.62 1222.5,-279.62 1229.5,-279.62"/>
</g>
<!-- km&#45;&gt;hm -->
<g id="edge21" class="edge">
<title>km&#45;&gt;hm</title>
<path fill="none" stroke="black" d="M1205.35,-268.42C1178.5,-293.13 1135,-341.17 1135,-393 1135,-542.45 1135,-542.45 1135,-542.45 1135,-589.33 1154.29,-640.59 1168.91,-672.7"/>
<polygon fill="black" stroke="black" points="1165.6,-673.88 1173.01,-681.45 1171.94,-670.91 1165.6,-673.88"/>
</g>
<!-- rg -->
<g id="node24" class="node">
<title>rg</title>
<polygon fill="none" stroke="black" points="1271,-196 1217,-196 1217,-160 1271,-160 1271,-196"/>
<text text-anchor="middle" x="1244" y="-174.3" font-family="Times,serif" font-size="14.00">rg</text>
</g>
<!-- km&#45;&gt;rg -->
<g id="edge20" class="edge">
<title>km&#45;&gt;rg</title>
<path fill="none" stroke="black" d="M1230.45,-231.7C1232.35,-224.32 1234.61,-215.52 1236.74,-207.25"/>
<polygon fill="black" stroke="black" points="1240.12,-208.13 1239.22,-197.57 1233.34,-206.38 1240.12,-208.13"/>
</g>
<!-- cn -->
<g id="node16" class="node">
<title>cn</title>
<ellipse fill="none" stroke="black" cx="695" cy="-541.45" rx="21.4" ry="21.4"/>
<text text-anchor="middle" x="695" y="-537.75" font-family="Times,serif" font-size="14.00">cn</text>
</g>
<!-- gh&#45;&gt;cn -->
<g id="edge10" class="edge">
<title>gh&#45;&gt;cn</title>
<path fill="none" stroke="black" d="M1054.88,-607.28C1049.67,-604.03 1043.81,-600.92 1038,-598.9 907.05,-553.4 853.78,-614.9 720.8,-561.55"/>
<polygon fill="black" stroke="black" points="722.21,-558.35 711.63,-557.73 719.51,-564.81 722.21,-558.35"/>
</g>
<!-- rx -->
<g id="node58" class="node">
<title>rx</title>
<ellipse fill="none" stroke="black" cx="651" cy="-929.09" rx="27" ry="18"/>
<text text-anchor="middle" x="651" y="-925.39" font-family="Times,serif" font-size="14.00">rx</text>
</g>
<!-- cn&#45;&gt;rx -->
<g id="edge105" class="edge">
<title>cn&#45;&gt;rx</title>
<path fill="none" stroke="black" d="M686.31,-561.48C673.48,-591.34 651,-651.32 651,-704.74 651,-786.09 651,-786.09 651,-786.09 651,-825.35 651,-870.71 651,-899.39"/>
<polygon fill="black" stroke="black" points="647.5,-899.09 651,-909.09 654.5,-899.09 647.5,-899.09"/>
</g>
<!-- vg -->
<g id="node18" class="node">
<title>vg</title>
<polygon fill="none" stroke="black" points="1238,-484 1184,-484 1184,-448 1238,-448 1238,-484"/>
<text text-anchor="middle" x="1211" y="-462.3" font-family="Times,serif" font-size="14.00">vg</text>
</g>
<!-- tl&#45;&gt;vg -->
<g id="edge11" class="edge">
<title>tl&#45;&gt;vg</title>
<path fill="none" stroke="black" d="M1218.63,-523.04C1217.51,-514.81 1216.14,-504.77 1214.88,-495.47"/>
<polygon fill="black" stroke="black" points="1218.37,-495.22 1213.56,-485.78 1211.44,-496.16 1218.37,-495.22"/>
</g>
<!-- vg&#45;&gt;hm -->
<g id="edge14" class="edge">
<title>vg&#45;&gt;hm</title>
<path fill="none" stroke="black" d="M1199.95,-484.39C1194.26,-494.38 1187.92,-507.42 1185,-520 1173.22,-570.74 1176.39,-631.46 1180.28,-669.07"/>
<polygon fill="black" stroke="black" points="1176.79,-669.38 1181.38,-678.93 1183.75,-668.6 1176.79,-669.38"/>
</g>
<!-- mm -->
<g id="node20" class="node">
<title>mm</title>
<polygon fill="none" stroke="black" points="1238,-412 1184,-412 1184,-376 1238,-376 1238,-412"/>
<text text-anchor="middle" x="1211" y="-390.3" font-family="Times,serif" font-size="14.00">mm</text>
</g>
<!-- vg&#45;&gt;mm -->
<g id="edge15" class="edge">
<title>vg&#45;&gt;mm</title>
<path fill="none" stroke="black" d="M1211,-447.7C1211,-440.41 1211,-431.73 1211,-423.54"/>
<polygon fill="black" stroke="black" points="1214.5,-423.62 1211,-413.62 1207.5,-423.62 1214.5,-423.62"/>
</g>
<!-- xt&#45;&gt;hm -->
<g id="edge30" class="edge">
<title>xt&#45;&gt;hm</title>
<path fill="none" stroke="black" d="M1228.57,-766.92C1222.01,-757.86 1213.77,-746.48 1206.23,-736.07"/>
<polygon fill="black" stroke="black" points="1209.16,-734.14 1200.46,-728.1 1203.49,-738.25 1209.16,-734.14"/>
</g>
<!-- xt&#45;&gt;zq -->
<g id="edge29" class="edge">
<title>xt&#45;&gt;zq</title>
<path fill="none" stroke="black" d="M1247.42,-766.81C1257.8,-738.89 1278.34,-683.62 1290.75,-650.22"/>
<polygon fill="black" stroke="black" points="1293.89,-651.81 1294.1,-641.22 1287.33,-649.37 1293.89,-651.81"/>
</g>
<!-- mm&#45;&gt;hm -->
<g id="edge23" class="edge">
<title>mm&#45;&gt;hm</title>
<path fill="none" stroke="black" d="M1192.88,-412.12C1185.91,-419.89 1178.74,-429.65 1175,-440 1146.66,-518.42 1163.47,-618.54 1175.7,-670.29"/>
<polygon fill="black" stroke="black" points="1172.23,-670.83 1178.01,-679.71 1179.03,-669.16 1172.23,-670.83"/>
</g>
<!-- mm&#45;&gt;xx -->
<g id="edge22" class="edge">
<title>mm&#45;&gt;xx</title>
<path fill="none" stroke="black" d="M1214.71,-375.7C1216.29,-368.32 1218.17,-359.52 1219.95,-351.25"/>
<polygon fill="black" stroke="black" points="1223.34,-352.1 1222.02,-341.58 1216.5,-350.63 1223.34,-352.1"/>
</g>
<!-- qf -->
<g id="node21" class="node">
<title>qf</title>
<polygon fill="none" stroke="black" points="1271,-124 1217,-124 1217,-88 1271,-88 1271,-124"/>
<text text-anchor="middle" x="1244" y="-102.3" font-family="Times,serif" font-size="14.00">qf</text>
</g>
<!-- qf&#45;&gt;hm -->
<g id="edge17" class="edge">
<title>qf&#45;&gt;hm</title>
<path fill="none" stroke="black" d="M1257.75,-124.34C1265.14,-134.32 1273.96,-147.35 1280,-160 1297.82,-197.3 1307,-207.66 1307,-249 1307,-467 1307,-467 1307,-467 1307,-511.66 1292.71,-521.09 1277,-562.9 1263.07,-599.96 1262.77,-611.31 1241,-644.39 1232.57,-657.21 1221.37,-669.88 1211.2,-680.28"/>
<polygon fill="black" stroke="black" points="1209.03,-677.5 1204.41,-687.03 1213.97,-682.46 1209.03,-677.5"/>
</g>
<!-- bf -->
<g id="node22" class="node">
<title>bf</title>
<polygon fill="none" stroke="black" points="1206,-52 1152,-52 1152,-16 1206,-16 1206,-52"/>
<text text-anchor="middle" x="1179" y="-30.3" font-family="Times,serif" font-size="14.00">bf</text>
</g>
<!-- qf&#45;&gt;bf -->
<g id="edge16" class="edge">
<title>qf&#45;&gt;bf</title>
<path fill="none" stroke="black" d="M1227.93,-87.7C1220.3,-79.47 1211.02,-69.48 1202.6,-60.42"/>
<polygon fill="black" stroke="black" points="1205.28,-58.16 1195.91,-53.21 1200.15,-62.92 1205.28,-58.16"/>
</g>
<!-- bf&#45;&gt;hm -->
<g id="edge19" class="edge">
<title>bf&#45;&gt;hm</title>
<path fill="none" stroke="black" d="M1165.43,-52.24C1146.64,-77.9 1115,-128.33 1115,-177 1115,-542.45 1115,-542.45 1115,-542.45 1115,-589 1119.12,-602.3 1139,-644.39 1144.64,-656.34 1152.92,-668.19 1160.91,-678.18"/>
<polygon fill="black" stroke="black" points="1158.02,-680.18 1167.11,-685.62 1163.4,-675.7 1158.02,-680.18"/>
</g>
<!-- zq&#45;&gt;tl -->
<g id="edge18" class="edge">
<title>zq&#45;&gt;tl</title>
<path fill="none" stroke="black" d="M1283.25,-603.29C1272.47,-592.76 1258.55,-579.15 1246.6,-567.47"/>
<polygon fill="black" stroke="black" points="1249.39,-565.3 1239.79,-560.81 1244.49,-570.3 1249.39,-565.3"/>
</g>
<!-- rg&#45;&gt;hm -->
<g id="edge31" class="edge">
<title>rg&#45;&gt;hm</title>
<path fill="none" stroke="black" d="M1252.91,-196.42C1265.5,-222.7 1287,-274.38 1287,-321 1287,-467 1287,-467 1287,-467 1287,-510.73 1279.82,-521.76 1265,-562.9 1251.26,-601.04 1244.14,-609.2 1224,-644.39 1218.2,-654.52 1211.44,-665.3 1205.19,-674.9"/>
<polygon fill="black" stroke="black" points="1202.33,-672.87 1199.75,-683.15 1208.18,-676.73 1202.33,-672.87"/>
</g>
<!-- rg&#45;&gt;qf -->
<g id="edge32" class="edge">
<title>rg&#45;&gt;qf</title>
<path fill="none" stroke="black" d="M1244,-159.7C1244,-152.41 1244,-143.73 1244,-135.54"/>
<polygon fill="black" stroke="black" points="1247.5,-135.62 1244,-125.62 1240.5,-135.62 1247.5,-135.62"/>
</g>
<!-- dg -->
<g id="node25" class="node">
<title>dg</title>
<polygon fill="none" stroke="black" points="528,-559.45 474,-559.45 474,-523.45 528,-523.45 528,-559.45"/>
<text text-anchor="middle" x="501" y="-537.75" font-family="Times,serif" font-size="14.00">dg</text>
</g>
<!-- dg&#45;&gt;jc -->
<g id="edge33" class="edge">
<title>dg&#45;&gt;jc</title>
<path fill="none" stroke="black" d="M506.73,-559.55C510.22,-570.64 514.49,-585.48 517,-598.9 525.7,-645.34 527,-657.49 527,-704.74 527,-930.09 527,-930.09 527,-930.09 527,-975.3 510.4,-1025.65 498.58,-1055.76"/>
<polygon fill="black" stroke="black" points="495.41,-1054.27 494.9,-1064.85 501.9,-1056.89 495.41,-1054.27"/>
</g>
<!-- rd -->
<g id="node26" class="node">
<title>rd</title>
<polygon fill="none" stroke="black" points="551,-484 497,-484 497,-448 551,-448 551,-484"/>
<text text-anchor="middle" x="524" y="-462.3" font-family="Times,serif" font-size="14.00">rd</text>
</g>
<!-- dg&#45;&gt;rd -->
<g id="edge34" class="edge">
<title>dg&#45;&gt;rd</title>
<path fill="none" stroke="black" d="M506.45,-523.04C509.06,-514.72 512.24,-504.54 515.18,-495.16"/>
<polygon fill="black" stroke="black" points="518.49,-496.31 518.14,-485.73 511.81,-494.22 518.49,-496.31"/>
</g>
<!-- rd&#45;&gt;jc -->
<g id="edge56" class="edge">
<title>rd&#45;&gt;jc</title>
<path fill="none" stroke="black" d="M528.84,-484.06C531.6,-494.38 534.92,-507.86 537,-520 544.6,-564.3 547,-575.69 547,-620.64 547,-930.09 547,-930.09 547,-930.09 547,-975.65 538.08,-987.16 520,-1028.98 515.57,-1039.22 509.45,-1049.82 503.69,-1058.89"/>
<polygon fill="black" stroke="black" points="500.85,-1056.82 498.27,-1067.1 506.7,-1060.68 500.85,-1056.82"/>
</g>
<!-- zm -->
<g id="node27" class="node">
<title>zm</title>
<polygon fill="none" stroke="black" points="468,-875.09 414,-875.09 414,-839.09 468,-839.09 468,-875.09"/>
<text text-anchor="middle" x="441" y="-853.39" font-family="Times,serif" font-size="14.00">zm</text>
</g>
<!-- zm&#45;&gt;jc -->
<g id="edge36" class="edge">
<title>zm&#45;&gt;jc</title>
<path fill="none" stroke="black" d="M456.31,-875.41C463.98,-885.18 472.56,-898.03 477,-911.09 493.28,-959.03 492.39,-1018.78 489.92,-1053.69"/>
<polygon fill="black" stroke="black" points="486.45,-1053.18 489.13,-1063.43 493.43,-1053.74 486.45,-1053.18"/>
</g>
<!-- zm&#45;&gt;lq -->
<g id="edge35" class="edge">
<title>zm&#45;&gt;lq</title>
<path fill="none" stroke="black" d="M436.06,-838.78C433.92,-831.32 431.38,-822.41 428.99,-814.05"/>
<polygon fill="black" stroke="black" points="432.42,-813.3 426.3,-804.65 425.68,-815.22 432.42,-813.3"/>
</g>
<!-- zg -->
<g id="node34" class="node">
<title>zg</title>
<polygon fill="none" stroke="black" points="448,-723.74 394,-723.74 394,-687.74 448,-687.74 448,-723.74"/>
<text text-anchor="middle" x="421" y="-702.04" font-family="Times,serif" font-size="14.00">zg</text>
</g>
<!-- lq&#45;&gt;zg -->
<g id="edge45" class="edge">
<title>lq&#45;&gt;zg</title>
<path fill="none" stroke="black" d="M421,-766.92C421,-757.67 421,-746.02 421,-735.44"/>
<polygon fill="black" stroke="black" points="424.5,-735.64 421,-725.64 417.5,-735.64 424.5,-735.64"/>
</g>
<!-- zv&#45;&gt;jc -->
<g id="edge38" class="edge">
<title>zv&#45;&gt;jc</title>
<path fill="none" stroke="black" d="M446.28,-1218.73C454.14,-1192.86 469.03,-1143.9 478.46,-1112.9"/>
<polygon fill="black" stroke="black" points="481.78,-1114.01 481.34,-1103.43 475.09,-1111.98 481.78,-1114.01"/>
</g>
<!-- xm -->
<g id="node30" class="node">
<title>xm</title>
<polygon fill="none" stroke="black" points="448,-1177.48 394,-1177.48 394,-1141.48 448,-1141.48 448,-1177.48"/>
<text text-anchor="middle" x="421" y="-1155.78" font-family="Times,serif" font-size="14.00">xm</text>
</g>
<!-- zv&#45;&gt;xm -->
<g id="edge37" class="edge">
<title>zv&#45;&gt;xm</title>
<path fill="none" stroke="black" d="M436.46,-1218.92C434.1,-1210 431.15,-1198.85 428.47,-1188.7"/>
<polygon fill="black" stroke="black" points="431.92,-1188.06 425.98,-1179.29 425.15,-1189.85 431.92,-1188.06"/>
</g>
<!-- xm&#45;&gt;jc -->
<g id="edge42" class="edge">
<title>xm&#45;&gt;jc</title>
<path fill="none" stroke="black" d="M436.64,-1141.03C445.91,-1130.69 457.72,-1117.5 467.58,-1106.5"/>
<polygon fill="black" stroke="black" points="469.9,-1109.16 473.97,-1099.37 464.69,-1104.48 469.9,-1109.16"/>
</g>
<!-- xm&#45;&gt;lx -->
<g id="edge43" class="edge">
<title>xm&#45;&gt;lx</title>
<path fill="none" stroke="black" d="M418.67,-1140.98C415.26,-1115.48 408.9,-1067.79 404.81,-1037.13"/>
<polygon fill="black" stroke="black" points="408.31,-1036.87 403.52,-1027.42 401.37,-1037.79 408.31,-1036.87"/>
</g>
<!-- vn -->
<g id="node31" class="node">
<title>vn</title>
<polygon fill="none" stroke="black" points="508,-639.64 454,-639.64 454,-603.64 508,-603.64 508,-639.64"/>
<text text-anchor="middle" x="481" y="-617.94" font-family="Times,serif" font-size="14.00">vn</text>
</g>
<!-- vn&#45;&gt;jc -->
<g id="edge40" class="edge">
<title>vn&#45;&gt;jc</title>
<path fill="none" stroke="black" d="M485.65,-639.94C493.13,-669.33 507,-731 507,-784.09 507,-930.09 507,-930.09 507,-930.09 507,-973.53 498.95,-1023.34 493.06,-1053.95"/>
<polygon fill="black" stroke="black" points="489.66,-1053.08 491.15,-1063.57 496.53,-1054.45 489.66,-1053.08"/>
</g>
<!-- vn&#45;&gt;dg -->
<g id="edge41" class="edge">
<title>vn&#45;&gt;dg</title>
<path fill="none" stroke="black" d="M485.44,-603.29C487.87,-593.77 490.95,-581.74 493.73,-570.89"/>
<polygon fill="black" stroke="black" points="497.11,-571.78 496.2,-561.22 490.33,-570.04 497.11,-571.78"/>
</g>
<!-- lx&#45;&gt;nv -->
<g id="edge55" class="edge">
<title>lx&#45;&gt;nv</title>
<path fill="none" stroke="black" d="M410.08,-989.19C414.99,-979.81 421.16,-968 426.7,-957.41"/>
<polygon fill="black" stroke="black" points="429.72,-959.19 431.26,-948.71 423.52,-955.95 429.72,-959.19"/>
</g>
<!-- ch&#45;&gt;cn -->
<g id="edge44" class="edge">
<title>ch&#45;&gt;cn</title>
<path fill="none" stroke="black" d="M608.85,-1006.74C631.85,-1005.68 667.36,-1000.24 687,-978.09 722.82,-937.68 706,-912.09 706,-858.09 706,-858.09 706,-858.09 706,-704.74 706,-659.34 701.66,-606.96 698.43,-574.27"/>
<polygon fill="black" stroke="black" points="701.95,-574.27 697.46,-564.67 694.99,-574.98 701.95,-574.27"/>
</g>
<!-- zg&#45;&gt;jc -->
<g id="edge46" class="edge">
<title>zg&#45;&gt;jc</title>
<path fill="none" stroke="black" d="M407.64,-724.03C388.36,-750.78 355,-804.5 355,-856.09 355,-930.09 355,-930.09 355,-930.09 355,-974.27 339.05,-993.23 365,-1028.98 386.76,-1058.95 428.96,-1072.49 457.56,-1078.44"/>
<polygon fill="black" stroke="black" points="456.56,-1081.81 467.03,-1080.2 457.84,-1074.93 456.56,-1081.81"/>
</g>
<!-- zg&#45;&gt;vn -->
<g id="edge47" class="edge">
<title>zg&#45;&gt;vn</title>
<path fill="none" stroke="black" d="M433.72,-687.33C441.84,-676.23 452.51,-661.63 461.66,-649.11"/>
<polygon fill="black" stroke="black" points="464.33,-651.39 467.4,-641.25 458.67,-647.26 464.33,-651.39"/>
</g>
<!-- nv&#45;&gt;zm -->
<g id="edge54" class="edge">
<title>nv&#45;&gt;zm</title>
<path fill="none" stroke="black" d="M441,-910.78C441,-903.49 441,-894.81 441,-886.62"/>
<polygon fill="black" stroke="black" points="444.5,-886.71 441,-876.71 437.5,-886.71 444.5,-886.71"/>
</g>
<!-- sv&#45;&gt;cn -->
<g id="edge57" class="edge">
<title>sv&#45;&gt;cn</title>
<path fill="none" stroke="black" d="M248.92,-1220.26C267.69,-1193.74 302,-1137.99 302,-1084.83 302,-1084.83 302,-1084.83 302,-704.74 302,-654.45 302.56,-630.09 342,-598.9 390.86,-560.26 558.92,-575.12 620,-562.9 634.43,-560.01 650.18,-555.87 663.5,-552.07"/>
<polygon fill="black" stroke="black" points="664.42,-555.45 673.04,-549.28 662.46,-548.73 664.42,-555.45"/>
</g>
<!-- rj -->
<g id="node37" class="node">
<title>rj</title>
<polygon fill="none" stroke="black" points="190,-947.09 136,-947.09 136,-911.09 190,-911.09 190,-947.09"/>
<text text-anchor="middle" x="163" y="-925.39" font-family="Times,serif" font-size="14.00">rj</text>
</g>
<!-- rj&#45;&gt;pl -->
<g id="edge59" class="edge">
<title>rj&#45;&gt;pl</title>
<path fill="none" stroke="black" d="M176.07,-947.35C205.43,-988.34 271.59,-1094.56 239,-1180.28 231.39,-1200.29 219.83,-1199.14 207,-1216.28 202.16,-1222.74 178.85,-1260.45 162.75,-1286.66"/>
<polygon fill="black" stroke="black" points="159.81,-1284.74 157.57,-1295.1 165.78,-1288.41 159.81,-1284.74"/>
</g>
<!-- rj&#45;&gt;cz -->
<g id="edge58" class="edge">
<title>rj&#45;&gt;cz</title>
<path fill="none" stroke="black" d="M158.06,-910.78C155.92,-903.32 153.38,-894.41 150.99,-886.05"/>
<polygon fill="black" stroke="black" points="154.42,-885.3 148.3,-876.65 147.68,-887.22 154.42,-885.3"/>
</g>
<!-- qp -->
<g id="node44" class="node">
<title>qp</title>
<polygon fill="none" stroke="black" points="150,-803.09 96,-803.09 96,-767.09 150,-767.09 150,-803.09"/>
<text text-anchor="middle" x="123" y="-781.39" font-family="Times,serif" font-size="14.00">qp</text>
</g>
<!-- cz&#45;&gt;qp -->
<g id="edge66" class="edge">
<title>cz&#45;&gt;qp</title>
<path fill="none" stroke="black" d="M138.06,-838.78C135.92,-831.32 133.38,-822.41 130.99,-814.05"/>
<polygon fill="black" stroke="black" points="134.42,-813.3 128.3,-804.65 127.68,-815.22 134.42,-813.3"/>
</g>
<!-- gj&#45;&gt;dl -->
<g id="edge60" class="edge">
<title>gj&#45;&gt;dl</title>
<path fill="none" stroke="black" d="M178.36,-1065.6C176.06,-1057.03 173.21,-1046.46 170.6,-1036.76"/>
<polygon fill="black" stroke="black" points="174.06,-1036.14 168.08,-1027.39 167.3,-1037.96 174.06,-1036.14"/>
</g>
<!-- dl&#45;&gt;rj -->
<g id="edge67" class="edge">
<title>dl&#45;&gt;rj</title>
<path fill="none" stroke="black" d="M163,-989.19C163,-980.2 163,-968.98 163,-958.74"/>
<polygon fill="black" stroke="black" points="166.5,-958.88 163,-948.88 159.5,-958.88 166.5,-958.88"/>
</g>
<!-- gt -->
<g id="node41" class="node">
<title>gt</title>
<polygon fill="none" stroke="black" points="110,-639.64 56,-639.64 56,-603.64 110,-603.64 110,-639.64"/>
<text text-anchor="middle" x="83" y="-617.94" font-family="Times,serif" font-size="14.00">gt</text>
</g>
<!-- gt&#45;&gt;pl -->
<g id="edge62" class="edge">
<title>gt&#45;&gt;pl</title>
<path fill="none" stroke="black" d="M77.37,-639.9C73.87,-651.28 69.56,-666.58 67,-680.39 58.56,-725.92 57,-737.79 57,-784.09 57,-1160.48 57,-1160.48 57,-1160.48 57,-1204.96 56.38,-1220.19 80,-1257.87 90.09,-1273.98 106.62,-1287.49 120.73,-1297.04"/>
<polygon fill="black" stroke="black" points="118.42,-1299.72 128.73,-1302.18 122.21,-1293.83 118.42,-1299.72"/>
</g>
<!-- dk -->
<g id="node42" class="node">
<title>dk</title>
<polygon fill="none" stroke="black" points="90,-559.45 36,-559.45 36,-523.45 90,-523.45 90,-559.45"/>
<text text-anchor="middle" x="63" y="-537.75" font-family="Times,serif" font-size="14.00">dk</text>
</g>
<!-- gt&#45;&gt;dk -->
<g id="edge61" class="edge">
<title>gt&#45;&gt;dk</title>
<path fill="none" stroke="black" d="M78.56,-603.29C76.13,-593.77 73.05,-581.74 70.27,-570.89"/>
<polygon fill="black" stroke="black" points="73.67,-570.04 67.8,-561.22 66.89,-571.78 73.67,-570.04"/>
</g>
<!-- dk&#45;&gt;pl -->
<g id="edge79" class="edge">
<title>dk&#45;&gt;pl</title>
<path fill="none" stroke="black" d="M57.27,-559.55C53.78,-570.64 49.51,-585.48 47,-598.9 38.3,-645.34 37,-657.49 37,-704.74 37,-1160.48 37,-1160.48 37,-1160.48 37,-1204.67 31.53,-1221.77 57,-1257.87 71.93,-1279.03 97.92,-1293.47 118.14,-1302.14"/>
<polygon fill="black" stroke="black" points="116.69,-1305.33 127.27,-1305.8 119.3,-1298.83 116.69,-1305.33"/>
</g>
<!-- bc -->
<g id="node43" class="node">
<title>bc</title>
<polygon fill="none" stroke="black" points="80,-484 26,-484 26,-448 80,-448 80,-484"/>
<text text-anchor="middle" x="53" y="-462.3" font-family="Times,serif" font-size="14.00">bc</text>
</g>
<!-- dk&#45;&gt;bc -->
<g id="edge80" class="edge">
<title>dk&#45;&gt;bc</title>
<path fill="none" stroke="black" d="M60.63,-523.04C59.51,-514.81 58.14,-504.77 56.88,-495.47"/>
<polygon fill="black" stroke="black" points="60.37,-495.22 55.56,-485.78 53.44,-496.16 60.37,-495.22"/>
</g>
<!-- bc&#45;&gt;pl -->
<g id="edge63" class="edge">
<title>bc&#45;&gt;pl</title>
<path fill="none" stroke="black" d="M42.7,-484.04C37.09,-494.13 30.59,-507.38 27,-520 14.68,-563.23 17,-575.69 17,-620.64 17,-1160.48 17,-1160.48 17,-1160.48 17,-1204.5 8.35,-1222.84 35,-1257.87 54.98,-1284.14 90.95,-1298.46 116.74,-1305.74"/>
<polygon fill="black" stroke="black" points="115.75,-1309.1 126.31,-1308.22 117.51,-1302.32 115.75,-1309.1"/>
</g>
<!-- qp&#45;&gt;pl -->
<g id="edge65" class="edge">
<title>qp&#45;&gt;pl</title>
<path fill="none" stroke="black" d="M116.86,-803.55C113.47,-813.79 109.47,-827.04 107,-839.09 98.99,-878.08 97,-888.28 97,-928.09 97,-1160.48 97,-1160.48 97,-1160.48 97,-1204.86 103.85,-1216.16 119,-1257.87 122.46,-1267.4 127.22,-1277.38 131.84,-1286.16"/>
<polygon fill="black" stroke="black" points="128.71,-1287.74 136.57,-1294.84 134.85,-1284.38 128.71,-1287.74"/>
</g>
<!-- ng -->
<g id="node45" class="node">
<title>ng</title>
<polygon fill="none" stroke="black" points="130,-723.74 76,-723.74 76,-687.74 130,-687.74 130,-723.74"/>
<text text-anchor="middle" x="103" y="-702.04" font-family="Times,serif" font-size="14.00">ng</text>
</g>
<!-- qp&#45;&gt;ng -->
<g id="edge64" class="edge">
<title>qp&#45;&gt;ng</title>
<path fill="none" stroke="black" d="M118.56,-766.92C116.14,-757.57 113.09,-745.77 110.33,-735.09"/>
<polygon fill="black" stroke="black" points="113.77,-734.4 107.87,-725.59 106.99,-736.15 113.77,-734.4"/>
</g>
<!-- ng&#45;&gt;pl -->
<g id="edge78" class="edge">
<title>ng&#45;&gt;pl</title>
<path fill="none" stroke="black" d="M97.69,-724.01C94.19,-736 89.76,-752.39 87,-767.09 79.66,-806.21 77,-816.28 77,-856.09 77,-1160.48 77,-1160.48 77,-1160.48 77,-1205.06 80.76,-1218.15 101,-1257.87 107.13,-1269.91 116.4,-1281.59 125.01,-1291.03"/>
<polygon fill="black" stroke="black" points="122.45,-1293.42 131.89,-1298.23 127.52,-1288.58 122.45,-1293.42"/>
</g>
<!-- ng&#45;&gt;gt -->
<g id="edge77" class="edge">
<title>ng&#45;&gt;gt</title>
<path fill="none" stroke="black" d="M98.76,-687.33C96.19,-676.77 92.84,-663.05 89.9,-650.96"/>
<polygon fill="black" stroke="black" points="93.36,-650.39 87.59,-641.5 86.56,-652.04 93.36,-650.39"/>
</g>
<!-- zc&#45;&gt;gj -->
<g id="edge68" class="edge">
<title>zc&#45;&gt;gj</title>
<path fill="none" stroke="black" d="M198.26,-1141.03C195.99,-1132.68 193.22,-1122.48 190.67,-1113.07"/>
<polygon fill="black" stroke="black" points="194.1,-1112.35 188.1,-1103.62 187.35,-1114.19 194.1,-1112.35"/>
</g>
<!-- zz -->
<g id="node48" class="node">
<title>zz</title>
<polygon fill="none" stroke="black" points="886,-723.74 832,-723.74 832,-687.74 886,-687.74 886,-723.74"/>
<text text-anchor="middle" x="859" y="-702.04" font-family="Times,serif" font-size="14.00">zz</text>
</g>
<!-- mq&#45;&gt;zz -->
<g id="edge81" class="edge">
<title>mq&#45;&gt;zz</title>
<path fill="none" stroke="black" d="M874.56,-766.92C872.14,-757.57 869.09,-745.77 866.33,-735.09"/>
<polygon fill="black" stroke="black" points="869.77,-734.4 863.87,-725.59 862.99,-736.15 869.77,-734.4"/>
</g>
<!-- zz&#45;&gt;fd -->
<g id="edge96" class="edge">
<title>zz&#45;&gt;fd</title>
<path fill="none" stroke="black" d="M853.69,-724.01C850.19,-736 845.76,-752.39 843,-767.09 835.66,-806.21 833,-816.28 833,-856.09 833,-1084.83 833,-1084.83 833,-1084.83 833,-1128.9 849.07,-1177.87 860.84,-1207.82"/>
<polygon fill="black" stroke="black" points="857.53,-1208.96 864.53,-1216.92 864.01,-1206.33 857.53,-1208.96"/>
</g>
<!-- pz -->
<g id="node49" class="node">
<title>pz</title>
<polygon fill="none" stroke="black" points="876,-639.64 822,-639.64 822,-603.64 876,-603.64 876,-639.64"/>
<text text-anchor="middle" x="849" y="-617.94" font-family="Times,serif" font-size="14.00">pz</text>
</g>
<!-- zz&#45;&gt;pz -->
<g id="edge97" class="edge">
<title>zz&#45;&gt;pz</title>
<path fill="none" stroke="black" d="M856.88,-687.33C855.61,-676.88 853.96,-663.33 852.49,-651.34"/>
<polygon fill="black" stroke="black" points="855.98,-651.04 851.3,-641.53 849.04,-651.88 855.98,-651.04"/>
</g>
<!-- pz&#45;&gt;fd -->
<g id="edge83" class="edge">
<title>pz&#45;&gt;fd</title>
<path fill="none" stroke="black" d="M839.36,-640.04C833.62,-651.22 826.75,-666.26 823,-680.39 811.12,-725.14 813,-737.79 813,-784.09 813,-1084.83 813,-1084.83 813,-1084.83 813,-1128.36 817.56,-1140.39 835,-1180.28 839.81,-1191.28 846.85,-1202.4 853.57,-1211.8"/>
<polygon fill="black" stroke="black" points="850.66,-1213.75 859.45,-1219.67 856.27,-1209.56 850.66,-1213.75"/>
</g>
<!-- qh -->
<g id="node50" class="node">
<title>qh</title>
<polygon fill="none" stroke="black" points="876,-559.45 822,-559.45 822,-523.45 876,-523.45 876,-559.45"/>
<text text-anchor="middle" x="849" y="-537.75" font-family="Times,serif" font-size="14.00">qh</text>
</g>
<!-- pz&#45;&gt;qh -->
<g id="edge82" class="edge">
<title>pz&#45;&gt;qh</title>
<path fill="none" stroke="black" d="M849,-603.29C849,-593.87 849,-581.99 849,-571.23"/>
<polygon fill="black" stroke="black" points="852.5,-571.27 849,-561.27 845.5,-571.27 852.5,-571.27"/>
</g>
<!-- qh&#45;&gt;fd -->
<g id="edge85" class="edge">
<title>qh&#45;&gt;fd</title>
<path fill="none" stroke="black" d="M835.47,-559.8C827.76,-570.51 818.57,-584.85 813,-598.9 795.37,-643.4 793,-656.87 793,-704.74 793,-1084.83 793,-1084.83 793,-1084.83 793,-1128.27 792.61,-1142.47 814,-1180.28 822.3,-1194.94 835.71,-1208.08 847.65,-1217.91"/>
<polygon fill="black" stroke="black" points="845.17,-1220.41 855.2,-1223.83 849.49,-1214.91 845.17,-1220.41"/>
</g>
<!-- bj -->
<g id="node51" class="node">
<title>bj</title>
<polygon fill="none" stroke="black" points="951,-484 897,-484 897,-448 951,-448 951,-484"/>
<text text-anchor="middle" x="924" y="-462.3" font-family="Times,serif" font-size="14.00">bj</text>
</g>
<!-- qh&#45;&gt;bj -->
<g id="edge84" class="edge">
<title>qh&#45;&gt;bj</title>
<path fill="none" stroke="black" d="M866.77,-523.04C876.21,-513.8 887.97,-502.28 898.37,-492.1"/>
<polygon fill="black" stroke="black" points="900.58,-494.84 905.27,-485.34 895.68,-489.84 900.58,-494.84"/>
</g>
<!-- bj&#45;&gt;fd -->
<g id="edge99" class="edge">
<title>bj&#45;&gt;fd</title>
<path fill="none" stroke="black" d="M940.39,-484.34C964.06,-511.26 1005,-565.76 1005,-620.64 1005,-1008.54 1005,-1008.54 1005,-1008.54 1005,-1051.51 999.03,-1062.81 983,-1102.68 979.26,-1111.98 943.41,-1172.58 937,-1180.28 925.65,-1193.91 910.83,-1207.05 898.31,-1217.16"/>
<polygon fill="black" stroke="black" points="896.17,-1214.38 890.47,-1223.31 900.5,-1219.89 896.17,-1214.38"/>
</g>
<!-- lt -->
<g id="node52" class="node">
<title>lt</title>
<polygon fill="none" stroke="black" points="936,-875.09 882,-875.09 882,-839.09 936,-839.09 936,-875.09"/>
<text text-anchor="middle" x="909" y="-853.39" font-family="Times,serif" font-size="14.00">lt</text>
</g>
<!-- lt&#45;&gt;fd -->
<g id="edge87" class="edge">
<title>lt&#45;&gt;fd</title>
<path fill="none" stroke="black" d="M923.25,-875.2C930.81,-885.11 939.61,-898.15 945,-911.09 972.94,-978.18 992.11,-1052.15 975,-1102.68 974.46,-1104.28 921.26,-1173.45 891.92,-1211.54"/>
<polygon fill="black" stroke="black" points="889.28,-1209.23 885.94,-1219.29 894.82,-1213.51 889.28,-1209.23"/>
</g>
<!-- lt&#45;&gt;mq -->
<g id="edge86" class="edge">
<title>lt&#45;&gt;mq</title>
<path fill="none" stroke="black" d="M901.58,-838.78C898.35,-831.24 894.48,-822.21 890.86,-813.77"/>
<polygon fill="black" stroke="black" points="894.08,-812.4 886.93,-804.58 887.65,-815.15 894.08,-812.4"/>
</g>
<!-- th&#45;&gt;cn -->
<g id="edge88" class="edge">
<title>th&#45;&gt;cn</title>
<path fill="none" stroke="black" d="M751.92,-1138.6C750.44,-1109.89 748,-1055.16 748,-1008.54 748,-1008.54 748,-1008.54 748,-704.74 748,-655.74 725.9,-602.35 710.24,-570.67"/>
<polygon fill="black" stroke="black" points="713.56,-569.47 705.91,-562.15 707.32,-572.65 713.56,-569.47"/>
</g>
<!-- xd -->
<g id="node54" class="node">
<title>xd</title>
<polygon fill="none" stroke="black" points="936,-947.09 882,-947.09 882,-911.09 936,-911.09 936,-947.09"/>
<text text-anchor="middle" x="909" y="-925.39" font-family="Times,serif" font-size="14.00">xd</text>
</g>
<!-- xd&#45;&gt;fd -->
<g id="edge89" class="edge">
<title>xd&#45;&gt;fd</title>
<path fill="none" stroke="black" d="M898.95,-947.1C893.14,-957.88 886.33,-972.34 883,-986.09 864.35,-1063.18 867.22,-1157.48 870.4,-1205.22"/>
<polygon fill="black" stroke="black" points="866.9,-1205.36 871.11,-1215.08 873.88,-1204.85 866.9,-1205.36"/>
</g>
<!-- xd&#45;&gt;lt -->
<g id="edge90" class="edge">
<title>xd&#45;&gt;lt</title>
<path fill="none" stroke="black" d="M909,-910.78C909,-903.49 909,-894.81 909,-886.62"/>
<polygon fill="black" stroke="black" points="912.5,-886.71 909,-876.71 905.5,-886.71 912.5,-886.71"/>
</g>
<!-- vp -->
<g id="node57" class="node">
<title>vp</title>
<polygon fill="none" stroke="black" points="966,-1101.83 912,-1101.83 912,-1065.83 966,-1065.83 966,-1101.83"/>
<text text-anchor="middle" x="939" y="-1080.13" font-family="Times,serif" font-size="14.00">vp</text>
</g>
<!-- jl&#45;&gt;vp -->
<g id="edge98" class="edge">
<title>jl&#45;&gt;vp</title>
<path fill="none" stroke="black" d="M984.78,-1141.03C977.46,-1132.04 968.38,-1120.9 960.25,-1110.91"/>
<polygon fill="black" stroke="black" points="963.1,-1108.88 954.07,-1103.33 957.68,-1113.3 963.1,-1108.88"/>
</g>
<!-- hv&#45;&gt;xd -->
<g id="edge102" class="edge">
<title>hv&#45;&gt;xd</title>
<path fill="none" stroke="black" d="M916.73,-989.19C915.55,-980.2 914.09,-968.98 912.75,-958.74"/>
<polygon fill="black" stroke="black" points="916.22,-958.33 911.46,-948.87 909.28,-959.24 916.22,-958.33"/>
</g>
<!-- vp&#45;&gt;fd -->
<g id="edge100" class="edge">
<title>vp&#45;&gt;fd</title>
<path fill="none" stroke="black" d="M931.67,-1102.11C923.53,-1121.25 909.96,-1153.03 898,-1180.28 894.1,-1189.16 889.8,-1198.82 885.88,-1207.56"/>
<polygon fill="black" stroke="black" points="882.71,-1206.08 881.8,-1216.63 889.09,-1208.95 882.71,-1206.08"/>
</g>
<!-- vp&#45;&gt;hv -->
<g id="edge101" class="edge">
<title>vp&#45;&gt;hv</title>
<path fill="none" stroke="black" d="M934.36,-1065.6C932.06,-1057.03 929.21,-1046.46 926.6,-1036.76"/>
<polygon fill="black" stroke="black" points="930.06,-1036.14 924.08,-1027.39 923.3,-1037.96 930.06,-1036.14"/>
</g>
<!-- broadcaster -->
<g id="node59" class="node">
<title>broadcaster</title>
<polygon fill="none" stroke="black" points="690,-1479.87 596.49,-1461.87 690,-1443.87 783.51,-1461.87 690,-1479.87"/>
<text text-anchor="middle" x="690" y="-1458.17" font-family="Times,serif" font-size="14.00">broadcaster</text>
</g>
<!-- broadcaster&#45;&gt;jn -->
<g id="edge109" class="edge">
<title>broadcaster&#45;&gt;jn</title>
<path fill="none" stroke="black" d="M600.86,-1460.57C530.07,-1458.88 428.88,-1453.19 342,-1435.87 304.99,-1428.49 264.33,-1414.35 235.68,-1403.32"/>
<polygon fill="black" stroke="black" points="237.31,-1400.2 226.73,-1399.81 234.76,-1406.72 237.31,-1400.2"/>
</g>
<!-- broadcaster&#45;&gt;ml -->
<g id="edge107" class="edge">
<title>broadcaster&#45;&gt;ml</title>
<path fill="none" stroke="black" d="M660.6,-1449.14C629.14,-1436.59 579.16,-1416.65 544.8,-1402.95"/>
<polygon fill="black" stroke="black" points="546.23,-1399.75 535.64,-1399.3 543.64,-1406.25 546.23,-1399.75"/>
</g>
<!-- broadcaster&#45;&gt;kl -->
<g id="edge106" class="edge">
<title>broadcaster&#45;&gt;kl</title>
<path fill="none" stroke="black" d="M771.58,-1459.09C867.41,-1456.38 1016.17,-1449.94 1038,-1435.87 1089.66,-1402.58 1104,-1375.82 1104,-1314.37 1104,-1314.37 1104,-1314.37 1104,-1082.83 1104,-1034.75 1133.29,-985.43 1154.24,-956.29"/>
<polygon fill="black" stroke="black" points="1156.92,-958.54 1160.07,-948.43 1151.3,-954.37 1156.92,-958.54"/>
</g>
<!-- broadcaster&#45;&gt;xs -->
<g id="edge108" class="edge">
<title>broadcaster&#45;&gt;xs</title>
<path fill="none" stroke="black" d="M719.4,-1449.14C750.86,-1436.59 800.84,-1416.65 835.2,-1402.95"/>
<polygon fill="black" stroke="black" points="836.36,-1406.25 844.36,-1399.3 833.77,-1399.75 836.36,-1406.25"/>
</g>
</g>
</svg>
